<svg width="48" height="48" viewBox="0 0 48 48" fill="none" xmlns="http://www.w3.org/2000/svg">
<path d="M22.4297 0.5H22.4326L22.6484 0.510742C23.7151 0.618694 24.5469 1.51824 24.5469 2.60742C24.5467 3.6978 23.7155 4.59566 22.6484 4.70508L22.4316 4.71582C19.5815 4.71584 16.7281 4.79173 13.877 4.94336L12.6543 5.0127C10.553 5.14095 8.78813 5.93536 7.49512 7.26855C6.28539 8.51594 5.51437 10.2076 5.24609 12.1992L5.19922 12.6006C4.73425 17.2758 4.50915 21.8619 5.06445 26.3652L5.18555 27.2646H5.18652C5.51231 29.4696 6.30526 31.2958 7.58301 32.625C8.78495 33.8752 10.3837 34.6523 12.334 34.9131L12.7295 34.959C13.0627 34.9908 13.3989 35.0197 13.7373 35.0479L14.7588 35.1289H14.7598C15.404 35.1768 15.9926 35.5181 16.3545 36.0537C16.6708 36.522 16.784 37.0947 16.6748 37.6416L16.6143 37.874L16.6133 37.876L16.041 39.665L15.6514 40.8848L16.7646 40.2529L24.9033 35.6318L24.9043 35.6309C25.1636 35.4829 25.453 35.3923 25.751 35.3643L25.8789 35.3564H25.8799C27.4484 35.3027 29.0141 35.2163 30.5762 35.0928L32.1377 34.957C34.2702 34.7528 36.0271 33.9586 37.3193 32.6338C38.5284 31.3941 39.2994 29.7216 39.6152 27.7168L39.6729 27.3115C39.8074 26.2304 40.7427 25.4409 41.8154 25.4648L42.0312 25.4805C43.1787 25.6225 43.9949 26.6538 43.875 27.7949L43.8701 27.832C43.1451 33.6556 38.9028 38.2793 33.1025 39.0928L32.5371 39.1592C30.59 39.3455 28.6481 39.453 26.7031 39.5303L26.5811 39.5352L26.4756 39.5947L13.0342 47.2227C12.3236 47.6264 11.4474 47.5848 10.7822 47.127L10.6523 47.0303C9.97466 46.483 9.70366 45.5783 9.96777 44.752L9.96582 44.751L11.6465 39.5039L11.8193 38.9639L11.2617 38.8604C5.9323 37.8624 2.06466 33.7085 1.08301 28.3975L0.99707 27.8799C0.307474 23.2176 0.42621 18.6293 0.806641 14.1172L0.983398 12.1885C1.56805 6.28566 5.92294 1.48672 11.8184 0.851562L12.3936 0.802734C15.7397 0.601536 19.0837 0.5 22.4297 0.5ZM13.2295 21.9297H28.8682C30.0385 21.9298 30.9844 22.8758 30.9844 24.0371C30.9843 24.5275 30.8149 24.9987 30.5068 25.375L30.3662 25.5293C29.9697 25.9247 29.431 26.1484 28.8682 26.1484H13.2295C12.7372 26.1484 12.2641 25.9777 11.8877 25.6699L11.7324 25.5293C11.3356 25.1313 11.1133 24.596 11.1133 24.0371L11.125 23.8223C11.2345 22.7606 12.1329 21.9297 13.2295 21.9297ZM38.0967 0.567383L38.2637 0.569336C43.0355 0.703568 47.0271 4.42501 47.4609 9.17773L47.4922 9.64648C47.7003 14.6777 43.8561 19.0059 38.8779 19.4668L38.3926 19.499C33.1873 19.7132 28.7333 15.6315 28.5078 10.4473V10.4365L28.5068 10.4268C28.3018 5.3932 32.1485 1.0664 37.127 0.607422L37.6123 0.575195H37.6152L38.0967 0.567383ZM13.2295 11.5137H21.0635C21.5545 11.5122 22.0272 11.6822 22.4053 11.9902L22.5615 12.1309C22.9577 12.5264 23.1807 13.0635 23.1807 13.6211V13.6221C23.1821 14.1112 23.0114 14.5829 22.7021 14.958L22.5615 15.1133L22.5605 15.1143C22.2136 15.4616 21.7574 15.6749 21.2725 15.7217L21.0635 15.7324H13.2295C12.7372 15.7324 12.2641 15.5617 11.8877 15.2539L11.7324 15.1133C11.3356 14.7153 11.1134 14.18 11.1133 13.6211L11.125 13.4062C11.2345 12.3445 12.1329 11.5137 13.2295 11.5137ZM37.8037 4.78516H37.7969L37.7861 4.78613C34.9418 4.90164 32.7585 7.17142 32.7334 9.97754L32.7383 10.251V10.2559C32.8565 13.0949 35.132 15.2702 37.9434 15.293L38.2168 15.2881C41.0609 15.1704 43.2439 12.9005 43.2666 10.0938L43.2617 9.82031C43.1419 6.89504 40.7322 4.67465 37.8037 4.78516Z" fill="white" stroke="white"/>
</svg>
